<?xml version="1.0" encoding="UTF-8"?>
<!DOCTYPE svg PUBLIC "-//W3C//DTD SVG 1.1//EN" "http://www.w3.org/Graphics/SVG/1.1/DTD/svg11.dtd">
<!-- Creator: CorelDRAW X8 -->
<svg xmlns="http://www.w3.org/2000/svg" xml:space="preserve" width="256px" height="256px" version="1.1" shape-rendering="geometricPrecision" text-rendering="geometricPrecision" image-rendering="optimizeQuality" fill-rule="evenodd" clip-rule="evenodd"
viewBox="0 0 25600000 25600000"
 xmlns:xlink="http://www.w3.org/1999/xlink">
 <g id="Capa_x0020_1">
  <metadata id="CorelCorpID_0Corel-Layer"/>
  <g id="_2780704790992">
   <rect fill="#9BD19B" x="-60" y="-60" width="25600120" height="25600120" rx="1905261" ry="1905261"/>
   <g>
    <path fill="#FFBDBD" d="M12800000 14532092c-1652249,-1321303 -2741583,-3582767 -2741583,-6150846 0,-2568197 1089334,-4829542 2741583,-6150964 1652249,1321422 2741583,3582767 2741583,6150964 0,2568079 -1089334,4829543 -2741583,6150846z"/>
    <path fill="#97BABA" d="M11507634 21546090c-65433,-2740757 1243468,-5592655 3741271,-7522937 2497685,-1930399 5587458,-2477960 8223214,-1723588 65316,2740639 -1243468,5592655 -3741271,7523055 -2497685,1930282 -5587576,2477724 -8223214,1723470z"/>
    <path fill="#FFDBBD" d="M10802041 19106161c501734,-2253786 -113859,-4823991 -1862250,-6826911 -1748391,-2002919 -4211824,-2960087 -6512736,-2767449 -501734,2253786 113740,4824109 1862131,6827029 1748392,2002919 4211943,2960088 6512855,2767331z"/>
   </g>
  </g>
 </g>
</svg>
